<svg width="266" height="196" viewBox="0 0 266 196" fill="none" xmlns="http://www.w3.org/2000/svg">
<g clip-path="url(#clip0_6:11)">
<path d="M129.923 185.689L19.6052 120.513C16.0932 118.539 13.0822 115.304 16.5052 113.182L127.215 49.3928C128.875 48.3628 131.396 47.6878 133.088 48.6728L248.874 115.863C252.386 117.901 253.016 123.58 249.517 125.637L144.461 185.587C142.256 186.866 139.755 187.548 137.206 187.565C134.656 187.583 132.146 186.937 129.923 185.689V185.689Z" fill="#5B36A0"/>
<path d="M129.923 182.681L19.6052 117.503C16.0932 115.528 13.0822 112.293 16.5052 110.171L127.215 46.3829C128.875 45.3539 131.396 44.6789 133.088 45.6629L248.874 112.853C252.386 114.892 253.016 120.57 249.517 122.628L144.461 182.577C142.256 183.856 139.755 184.538 137.206 184.556C134.657 184.574 132.147 183.927 129.923 182.68V182.681Z" fill="#6862E6"/>
<path style="mix-blend-mode:multiply" opacity="0.25" d="M139.019 96.6869L117.251 109.105C117.251 109.105 150.784 129.562 157.641 132.443L170.178 114.436" fill="url(#paint0_linear_6:11)"/>
<path style="mix-blend-mode:multiply" opacity="0.25" d="M131.499 156.263L109.725 143.87L87.9512 156.288C87.9512 156.288 99.2912 163.208 110.131 169.562C117.013 164.694 123.902 159.774 131.499 156.262V156.263Z" fill="url(#paint1_linear_6:11)"/>
<path style="mix-blend-mode:multiply" opacity="0.46" d="M84.5872 79.7349L70.7762 87.6129C70.7762 87.6129 71.9462 94.8349 78.8042 97.7159L96.8862 86.1399" fill="url(#paint2_linear_6:11)"/>
<path d="M91.3472 87.6129C95.9477 87.6129 99.6772 84.9871 99.6772 81.7479C99.6772 78.5088 95.9477 75.8829 91.3472 75.8829C86.7467 75.8829 83.0172 78.5088 83.0172 81.7479C83.0172 84.9871 86.7467 87.6129 91.3472 87.6129Z" fill="#68E1FD"/>
<path d="M91.3412 80.8409C94.7875 80.8409 97.5812 79.6978 97.5812 78.2879C97.5812 76.8779 94.7875 75.7349 91.3412 75.7349C87.8949 75.7349 85.1012 76.8779 85.1012 78.2879C85.1012 79.6978 87.8949 80.8409 91.3412 80.8409Z" fill="#974C26"/>
<path d="M91.1162 74.0309C91.1162 72.8799 91.0772 71.7279 90.9872 70.5769C90.9612 70.2769 90.9332 69.9789 90.9032 69.6829L90.8392 69.0979C90.8392 68.9249 90.7492 68.4549 90.7492 68.4999C90.7102 68.2639 90.6692 68.0299 90.6272 67.7999C89.9467 63.8918 88.4283 60.1774 86.1762 56.9119C85.3286 58.9283 84.9058 61.0978 84.9342 63.2849C84.9342 63.9279 84.9852 64.5709 85.0372 65.1749V65.5549C85.2907 67.0467 85.6782 68.5127 86.1952 69.9349C86.5637 70.9715 87.0131 71.9776 87.5392 72.9439C88.107 74.0317 88.7229 75.0938 89.3852 76.1269C89.9002 76.9369 90.3892 77.6569 90.8852 78.3459C91.0392 76.9119 91.1092 75.4709 91.1152 74.0309H91.1162ZM87.8422 61.0849C87.8752 60.9367 87.8752 60.783 87.8422 60.6349C88.0002 60.7979 88.1572 60.9649 88.3122 61.1369C88.1573 61.0928 87.996 61.0752 87.8352 61.0849H87.8422Z" fill="#999A1C"/>
<path d="M93.2582 74.9179C93.9012 73.9479 94.4682 72.9879 95.0142 71.9409C95.1552 71.6749 95.2932 71.4089 95.4262 71.1429L95.6892 70.6089L95.9402 70.0559L96.2172 69.4129C97.7589 65.7546 98.4897 61.8057 98.3592 57.8379C96.5511 59.0759 95.0181 60.674 93.8562 62.5319C93.5228 63.0679 93.2115 63.6173 92.9232 64.1789L92.7952 64.4159L92.7622 64.5189C92.6402 64.8089 92.5182 65.0989 92.4022 65.3939C91.9757 66.5144 91.6298 67.664 91.3672 68.8339C91.1167 69.9062 90.9508 70.9966 90.8712 72.0949C90.7577 73.3156 90.7019 74.5409 90.7042 75.7669C90.7042 76.7249 90.7042 77.5999 90.7622 78.4419C91.6172 77.3039 92.4792 76.1339 93.2582 74.9179V74.9179ZM97.5032 62.2559C97.6042 62.1429 97.6792 62.0089 97.7222 61.8629C97.7692 62.0859 97.8102 62.3009 97.8442 62.5069C97.7442 62.4069 97.6292 62.3219 97.5042 62.2559H97.5032Z" fill="#999A1C"/>
<path d="M93.2132 77.7859C93.8602 77.4649 94.5032 77.1179 95.1432 76.7449L95.6252 76.4489L95.9402 76.2489L96.2492 76.0309L96.6092 75.7669C98.6202 74.2912 100.288 72.3979 101.498 70.2169C100.125 70.305 98.785 70.675 97.5612 71.3039C97.2072 71.4839 96.8662 71.6839 96.5252 71.8889L96.3782 71.9789L96.3262 72.0239L95.8502 72.3779C95.2572 72.8449 94.6982 73.3549 94.1782 73.9019C93.6972 74.3999 93.2562 74.9359 92.8582 75.5029C92.4118 76.1342 91.983 76.7778 91.5722 77.4329C91.2642 77.9469 90.9872 78.4289 90.7422 78.8989C91.5722 78.5519 92.4022 78.1909 93.2122 77.7859H93.2132ZM99.5932 72.3199C99.6843 72.2916 99.768 72.2435 99.8382 72.1789C99.7913 72.3155 99.74 72.4506 99.6842 72.5839C99.6674 72.4941 99.6371 72.4075 99.5942 72.3269V72.3199H99.5932ZM91.1162 74.0309C91.1162 72.8799 91.0772 71.7279 90.9872 70.5769C90.9612 70.2769 90.9332 69.9789 90.9032 69.6829L90.8392 69.0979C90.8392 68.9249 90.7492 68.4549 90.7492 68.4999C90.7102 68.2639 90.6692 68.0299 90.6272 67.7999C89.9467 63.8918 88.4283 60.1774 86.1762 56.9119C85.3286 58.9283 84.9058 61.0978 84.9342 63.2849C84.9342 63.9279 84.9852 64.5709 85.0372 65.1749V65.5549C85.2907 67.0467 85.6782 68.5127 86.1952 69.9349C86.5637 70.9715 87.0131 71.9776 87.5392 72.9439C88.107 74.0317 88.7229 75.0938 89.3852 76.1269C89.9002 76.9369 90.3892 77.6569 90.8852 78.3459C91.0392 76.9119 91.1092 75.4709 91.1152 74.0309H91.1162ZM87.8422 61.0849C87.8752 60.9367 87.8752 60.783 87.8422 60.6349C88.0002 60.7979 88.1572 60.9649 88.3122 61.1369C88.1573 61.0928 87.996 61.0752 87.8352 61.0849H87.8422Z" fill="#999A1C"/>
<path d="M93.2582 74.9179C93.9012 73.9479 94.4682 72.9879 95.0142 71.9409C95.1552 71.6749 95.2932 71.4089 95.4262 71.1429L95.6892 70.6089L95.9402 70.0559L96.2172 69.4129C97.7589 65.7546 98.4897 61.8057 98.3592 57.8379C96.5511 59.0759 95.0181 60.674 93.8562 62.5319C93.5228 63.0679 93.2115 63.6173 92.9232 64.1789L92.7952 64.4159L92.7622 64.5189C92.6402 64.8089 92.5182 65.0989 92.4022 65.3939C91.9757 66.5144 91.6298 67.664 91.3672 68.8339C91.1167 69.9062 90.9508 70.9966 90.8712 72.0949C90.7577 73.3156 90.7019 74.5409 90.7042 75.7669C90.7042 76.7249 90.7042 77.5999 90.7622 78.4419C91.6172 77.3039 92.4792 76.1339 93.2582 74.9179V74.9179ZM97.5032 62.2559C97.6042 62.1429 97.6792 62.0089 97.7222 61.8629C97.7692 62.0859 97.8102 62.3009 97.8442 62.5069C97.7442 62.4069 97.6292 62.3219 97.5042 62.2559H97.5032Z" fill="#999A1C"/>
<path d="M93.2132 77.7859C93.8602 77.4649 94.5032 77.1179 95.1432 76.7449L95.6252 76.4489L95.9402 76.2489L96.2492 76.0309L96.6092 75.7669C98.6202 74.2913 100.288 72.3979 101.498 70.2169C100.125 70.305 98.785 70.675 97.5612 71.3039C97.2072 71.4839 96.8662 71.6839 96.5252 71.8889L96.3782 71.9789L96.3262 72.0239L95.8502 72.3779C95.2572 72.8449 94.6982 73.3549 94.1782 73.9019C93.6972 74.3999 93.2562 74.9359 92.8582 75.5029C92.4118 76.1343 91.983 76.7778 91.5722 77.4329C91.2642 77.9469 90.9872 78.4289 90.7422 78.8989C91.5722 78.5519 92.4022 78.1909 93.2122 77.7859H93.2132ZM99.5932 72.3199C99.6844 72.2917 99.768 72.2435 99.8382 72.1789C99.7914 72.3156 99.74 72.4506 99.6842 72.5839C99.6675 72.4942 99.6371 72.4075 99.5942 72.3269V72.3199H99.5932Z" fill="#999A1C"/>
<path d="M147.664 91.8379L135.616 97.6259C135.162 97.8441 134.777 98.1818 134.5 98.6026C134.224 99.0235 134.068 99.5117 134.048 100.015C134.028 100.518 134.145 101.017 134.388 101.458C134.63 101.9 134.988 102.267 135.423 102.52L163.977 119.176C164.594 119.537 165.327 119.645 166.022 119.478C166.717 119.312 167.321 118.883 167.708 118.282L174.648 107.491" fill="#A1482D"/>
<path d="M213.193 63.9209L117.123 8.57688C116.464 8.19802 115.717 7.99908 114.957 8C114.197 8.00093 113.45 8.20169 112.792 8.58215C112.134 8.96262 111.587 9.50942 111.207 10.1677C110.827 10.826 110.627 11.5727 110.626 12.3329V69.9079C110.626 71.1949 111.312 72.3839 112.426 73.0279L214.846 132.134C215.199 132.338 215.6 132.446 216.008 132.446C216.417 132.446 216.817 132.339 217.171 132.135C217.524 131.931 217.818 131.637 218.022 131.283C218.225 130.93 218.333 130.529 218.332 130.121V72.7829C218.331 70.9842 217.855 69.2177 216.952 67.6617C216.05 66.1058 214.753 64.8154 213.192 63.9209H213.193Z" fill="#F47B56"/>
<path d="M117.129 12.9309L210.298 66.5189C211.293 67.0915 212.12 67.9161 212.694 68.9098C213.269 69.9034 213.572 71.031 213.572 72.1789V115.336C213.572 115.749 213.462 116.155 213.256 116.512C213.049 116.87 212.752 117.167 212.395 117.374C212.038 117.581 211.632 117.691 211.219 117.692C210.806 117.693 210.4 117.586 210.041 117.381L115.025 62.8989C114.67 62.695 114.374 62.4008 114.169 62.0461C113.963 61.6914 113.855 61.2888 113.855 60.8789V14.8279C113.855 14.4445 113.956 14.0679 114.147 13.7358C114.338 13.4036 114.614 13.1276 114.945 12.9354C115.277 12.7433 115.653 12.6417 116.037 12.6409C116.42 12.6401 116.797 12.7401 117.129 12.9309V12.9309Z" fill="white"/>
<path d="M156.331 94.3332C157.43 94.1216 158.124 92.9323 157.883 91.6768C157.641 90.4213 156.554 89.5751 155.455 89.7867C154.357 89.9983 153.662 91.1876 153.904 92.443C154.146 93.6985 155.232 94.5447 156.331 94.3332Z" fill="#AB643C"/>
<path opacity="0.32" d="M142.171 71.4839L185.468 97.4909L206.857 85.0599L168.641 62.8219" fill="url(#paint3_linear_6:11)"/>
<path d="M195.677 66.3069L148.867 37.7729C148.617 37.6281 148.332 37.553 148.043 37.5555C147.753 37.5579 147.47 37.6378 147.222 37.7868C146.974 37.9358 146.77 38.1485 146.632 38.4027C146.494 38.657 146.426 38.9437 146.436 39.2329V55.4899C146.434 55.7841 146.508 56.0739 146.651 56.331C146.795 56.5881 147.002 56.8037 147.253 56.9569L194.056 84.8869C194.302 85.0265 194.581 85.099 194.864 85.0972C195.147 85.0954 195.424 85.0193 195.668 84.8765C195.913 84.7337 196.115 84.5293 196.255 84.2836C196.396 84.038 196.469 83.7598 196.468 83.4769L196.712 68.3199C196.73 67.9232 196.644 67.5287 196.463 67.1756C196.281 66.8225 196.01 66.523 195.677 66.3069V66.3069Z" fill="#E2AC00"/>
<path d="M184.478 74.6728C186.157 77.0208 189.109 77.6768 191.065 76.1458C193.02 74.6158 193.245 71.4708 191.566 69.1298C189.887 66.7898 186.935 66.1268 184.979 67.6578C183.024 69.1878 182.799 72.3268 184.478 74.6738V74.6728Z" fill="white"/>
<path d="M179.885 63.4068L160.793 51.9148C160.63 51.8398 160.444 51.8282 160.272 51.8823C160.1 51.9363 159.955 52.0522 159.864 52.2074C159.772 52.3625 159.742 52.5461 159.778 52.7224C159.815 52.8987 159.915 53.0553 160.06 53.1618L179.152 64.6538C179.316 64.7288 179.502 64.7404 179.673 64.6864C179.845 64.6323 179.991 64.5165 180.082 64.3613C180.173 64.2061 180.203 64.0226 180.167 63.8463C180.131 63.6699 180.03 63.5134 179.885 63.4068V63.4068ZM179.1 68.0758L152.785 52.2358C152.624 52.1792 152.448 52.1812 152.288 52.2414C152.128 52.3017 151.994 52.4164 151.911 52.5653C151.827 52.7143 151.798 52.888 151.83 53.056C151.861 53.224 151.951 53.3754 152.083 53.4838L178.367 69.3298C178.531 69.4061 178.718 69.4185 178.89 69.3647C179.063 69.3109 179.209 69.1947 179.301 69.0388C179.392 68.8829 179.422 68.6985 179.385 68.5216C179.348 68.3447 179.247 68.1879 179.1 68.0818V68.0758Z" fill="#F2F2F2"/>
<path d="M186.337 69.4579L139.553 40.9309C139.303 40.7859 139.018 40.7106 138.728 40.7129C138.439 40.7153 138.155 40.7951 137.907 40.9441C137.659 41.0931 137.455 41.3059 137.317 41.5603C137.179 41.8148 137.111 42.1016 137.121 42.3909V58.6409C137.114 59.2409 137.421 59.7999 137.931 60.1139L184.735 88.0439C184.984 88.1867 185.266 88.2607 185.552 88.2585C185.839 88.2563 186.12 88.1779 186.366 88.0313C186.612 87.8847 186.815 87.6753 186.953 87.4244C187.092 87.1736 187.161 86.8904 187.154 86.6039L187.398 71.4449C187.409 71.0501 187.317 70.6594 187.131 70.311C186.945 69.9626 186.671 69.6686 186.337 69.4579Z" fill="#F47B56"/>
<path d="M175.138 77.8248C176.817 80.1718 179.769 80.8278 181.725 79.2978C183.68 77.7678 183.905 74.6218 182.226 72.2808C180.547 69.9408 177.595 69.2778 175.639 70.8088C173.684 72.3388 173.459 75.4778 175.138 77.8248Z" fill="white"/>
<path d="M170.545 66.5578L151.439 55.0658C151.275 54.9896 151.089 54.9772 150.916 55.031C150.744 55.0848 150.597 55.201 150.506 55.3569C150.414 55.5127 150.384 55.6971 150.421 55.8741C150.458 56.051 150.56 56.2078 150.706 56.3138L169.798 67.8058C169.962 67.8821 170.149 67.8945 170.321 67.8407C170.494 67.7869 170.64 67.6707 170.732 67.5148C170.823 67.359 170.853 67.1746 170.816 66.9976C170.779 66.8207 170.678 66.6639 170.531 66.5578H170.544H170.545ZM169.754 71.2588L143.444 55.3938C143.28 55.3176 143.094 55.3052 142.921 55.359C142.749 55.4128 142.602 55.529 142.511 55.6849C142.419 55.8407 142.389 56.0251 142.426 56.2021C142.463 56.379 142.565 56.5358 142.711 56.6418L169.027 72.4808C169.191 72.5571 169.378 72.5695 169.55 72.5157C169.723 72.4619 169.869 72.3457 169.961 72.1898C170.052 72.034 170.082 71.8496 170.045 71.6726C170.008 71.4957 169.907 71.3389 169.76 71.2328L169.754 71.2588Z" fill="#F2F2F2"/>
<path d="M174.597 71.3748L127.801 42.8468C127.551 42.7018 127.266 42.6265 126.976 42.6288C126.687 42.6312 126.403 42.711 126.155 42.86C125.907 43.009 125.703 43.2218 125.565 43.4762C125.427 43.7307 125.359 44.0175 125.369 44.3068V60.5578C125.367 60.8519 125.442 61.1415 125.585 61.3984C125.728 61.6553 125.935 61.8707 126.186 62.0238L172.989 89.9538C173.238 90.0966 173.52 90.1706 173.806 90.1684C174.093 90.1662 174.374 90.0878 174.62 89.9412C174.866 89.7946 175.069 89.5852 175.207 89.3343C175.346 89.0835 175.415 88.8003 175.408 88.5138L175.652 73.3548C175.673 72.5548 175.272 71.8038 174.597 71.3748V71.3748Z" fill="#68E1FD"/>
<path d="M174.597 71.3748L127.801 42.8468C127.551 42.7018 127.266 42.6265 126.976 42.6288C126.687 42.6312 126.403 42.711 126.155 42.86C125.907 43.009 125.703 43.2218 125.565 43.4762C125.427 43.7307 125.359 44.0175 125.369 44.3068V60.5578C125.367 60.8519 125.442 61.1415 125.585 61.3984C125.728 61.6553 125.935 61.8707 126.186 62.0238L172.989 89.9538C173.238 90.0966 173.52 90.1706 173.806 90.1684C174.093 90.1662 174.374 90.0878 174.62 89.9412C174.866 89.7946 175.069 89.5852 175.207 89.3343C175.346 89.0835 175.415 88.8003 175.408 88.5138L175.652 73.3548C175.673 72.5548 175.272 71.8038 174.597 71.3748V71.3748Z" fill="#68E1FD"/>
<path d="M163.392 79.7408C165.071 82.0888 168.023 82.7448 169.979 81.2138C171.934 79.6838 172.159 76.5388 170.48 74.1978C168.802 71.8578 165.849 71.1948 163.894 72.7248C161.938 74.2548 161.732 77.3948 163.392 79.7408V79.7408Z" fill="white"/>
<path d="M158.799 68.4738L139.701 56.9828C139.537 56.9057 139.35 56.8926 139.177 56.9461C139.004 56.9996 138.857 57.1159 138.765 57.2721C138.673 57.4284 138.643 57.6133 138.68 57.7906C138.718 57.968 138.82 58.125 138.967 58.2308L158.059 69.7228C158.223 69.8 158.41 69.8131 158.583 69.7595C158.756 69.706 158.903 69.5897 158.995 69.4335C159.087 69.2773 159.117 69.0924 159.08 68.915C159.043 68.7377 158.94 68.5807 158.793 68.4748H158.799V68.4738ZM158.008 73.1498L131.692 57.3098C131.528 57.2336 131.342 57.2212 131.169 57.275C130.997 57.3288 130.85 57.445 130.759 57.6008C130.667 57.7567 130.637 57.9411 130.674 58.1181C130.711 58.295 130.813 58.4518 130.959 58.5578L157.274 74.3978C157.438 74.475 157.625 74.4881 157.798 74.4345C157.971 74.381 158.118 74.2647 158.21 74.1085C158.302 73.9523 158.332 73.7674 158.295 73.59C158.258 73.4127 158.155 73.2557 158.008 73.1498Z" fill="#F2F2F2"/>
<path d="M113.179 69.7799C110.155 72.3819 107.868 75.7328 106.547 79.4969C104.219 85.9269 110.04 96.4359 110.04 96.4359L119.097 89.2659" fill="#FF8F6F"/>
<path d="M112.202 154.803L109.744 153.446L110.388 149.935C110.388 149.935 114.048 150.282 114.369 151.581" fill="#003B94"/>
<path d="M113.102 154.751C113.655 154.411 114.234 154.108 114.807 153.806C116.228 153.028 118.28 152.224 119.155 150.764C119.334 150.469 119.419 150.126 119.399 149.781C119.378 149.437 119.253 149.106 119.039 148.835C117.753 147.279 114.935 149.838 113.495 148.115C113.212 147.774 113.076 142.365 113.076 142.365L107.596 143.845C107.596 143.845 106.67 154.713 106.773 155.382C106.875 156.05 108.76 156.668 108.76 156.668C109.322 156.549 109.858 156.331 110.343 156.025C110.915 155.607 110.394 150.507 111.127 151.221C111.861 151.935 112.182 154.726 112.182 154.726C112.487 154.772 112.796 154.78 113.102 154.751V154.751Z" fill="#F47B56"/>
<path d="M122.667 160.057L120.21 158.719L120.853 155.208C120.853 155.208 124.513 155.555 124.835 156.854" fill="#003B94"/>
<path d="M123.594 160.005C124.147 159.665 124.726 159.362 125.298 159.06C126.72 158.282 128.772 157.478 129.647 156.018C129.826 155.723 129.911 155.38 129.891 155.035C129.87 154.691 129.745 154.36 129.531 154.089C128.244 152.533 125.427 155.092 123.986 153.369C123.703 153.028 123.568 147.619 123.568 147.619L118.088 149.099C118.088 149.099 117.155 160.005 117.258 160.649C117.36 161.292 119.245 161.935 119.245 161.935C119.807 161.816 120.343 161.598 120.828 161.292C121.4 160.874 120.879 155.774 121.612 156.488C122.346 157.202 122.667 159.993 122.667 159.993C122.974 160.035 123.286 160.039 123.594 160.005Z" fill="#F47B56"/>
<path d="M104.811 124.726L103.196 146.314C103.196 146.314 105.769 149.864 114.396 147.89L114.479 133.337L104.811 124.726ZM114.775 129.003C114.588 130.861 114.775 151.363 114.775 151.363C114.775 151.363 117.161 155.825 127.55 151.363L127.402 133.941" fill="#3E2928"/>
<path d="M104.007 131.857C104.714 132.347 104.959 129.832 105.698 130.263C108.39 131.826 111.246 133.085 114.215 134.018H114.279C114.35 133.984 114.427 133.964 114.506 133.96C114.584 133.956 114.663 133.968 114.737 133.995C114.811 134.022 114.878 134.063 114.936 134.117C114.993 134.171 115.039 134.236 115.071 134.308C116.905 134.855 118.771 135.284 120.661 135.594C123.085 135.98 125.092 134.185 127.581 134.064C127.581 124.533 127.627 97.4069 123.568 91.6189L111.558 87.5809C111.5 88.5709 105.73 95.2589 105.872 103.414C106.032 112.604 104.836 121.272 104.63 124.147C104.598 124.636 104.032 131.337 104.007 131.857V131.857Z" fill="#3E2928"/>
<path d="M124.674 80.6608L123.568 91.5938C123.568 91.5938 114.608 91.9538 110.748 89.2908V80.0178" fill="#FF8F6F"/>
<path d="M136.066 73.4649L135.153 74.7119C135.64 73.6972 136.069 72.6559 136.439 71.5929C136.697 70.8669 135.532 70.5769 135.275 71.3039L135.14 71.6769C135.252 71.2909 135.357 70.9029 135.455 70.5129C135.477 70.4357 135.482 70.355 135.472 70.2755C135.462 70.1961 135.436 70.1195 135.395 70.0503C135.355 69.9811 135.301 69.9206 135.237 69.8726C135.173 69.8245 135.1 69.7897 135.022 69.7704C134.944 69.751 134.863 69.7474 134.784 69.7598C134.705 69.7721 134.629 69.8003 134.561 69.8424C134.493 69.8846 134.434 69.94 134.388 70.0054C134.341 70.0707 134.309 70.1447 134.291 70.2229C134.039 71.2325 133.736 72.2287 133.384 73.2079C133.581 72.3387 133.723 71.458 133.809 70.5709C133.886 69.8059 132.683 69.8379 132.612 70.5709C132.512 71.5809 132.332 72.5809 132.072 73.5609C132.072 73.2157 132.039 72.8712 131.975 72.5319C131.966 72.4466 131.94 72.3642 131.897 72.29C131.853 72.2159 131.795 72.1518 131.725 72.1019C131.693 71.9669 131.654 71.8335 131.609 71.7019C131.564 71.5672 131.472 71.4527 131.351 71.3788C131.229 71.3048 131.085 71.2761 130.945 71.2976C130.804 71.3191 130.675 71.3894 130.582 71.4963C130.488 71.6032 130.434 71.7397 130.431 71.8819L130.354 76.3839C130.136 76.8509 129.853 77.2839 129.512 77.6709C130.09 78.0709 130.649 78.5009 131.184 78.9569C131.662 79.3599 132.117 79.7899 132.548 80.2429C132.934 79.7629 133.305 79.2739 133.661 78.7769C133.705 78.7393 133.744 78.6959 133.776 78.6479C134.848 77.0627 135.955 75.5016 137.096 73.9659C137.572 73.4389 136.523 72.8539 136.066 73.4649V73.4649Z" fill="#FFB5A9"/>
<path d="M118.988 70.6929C118.988 70.6929 123.221 71.8309 124.938 74.5519C126.014 76.4344 126.962 78.3872 127.775 80.3969L130.901 75.5419C130.901 75.5419 134.696 76.7059 136.201 78.5709C136.201 78.5709 131.699 88.4109 127.775 89.2529C123.851 90.0949 119.683 83.4779 119.683 83.4779C119.683 83.4779 118.821 86.2429 118.988 83.2909" fill="#FF8F6F"/>
<path d="M121.677 81.2079C120.447 80.2073 119.518 78.8849 118.994 77.3879C118.486 75.6579 119.123 74.1399 119.714 72.5319C120.355 70.9383 120.729 69.2501 120.821 67.5349C120.873 65.8509 120.68 64.1649 120.564 62.4869C120.548 62.4152 120.548 62.3406 120.564 62.2689C119.998 60.3709 118.84 58.7639 116.556 58.5709C110.645 58.0689 110.31 64.6159 110.356 67.2779C110.4 69.9409 110.684 71.7409 108.722 72.8539C106.76 73.9659 105.344 76.8859 107.216 79.2459C109.088 81.6059 107.409 80.7449 106.161 82.8409C104.914 84.9379 105.235 87.5549 107.795 88.5009C110.355 89.4459 122.255 87.6709 123.349 86.5709C123.737 86.1279 123.938 85.5513 123.909 84.9629C123.642 83.4831 122.849 82.1496 121.677 81.2079Z" fill="#007F68"/>
<path d="M127.492 27.2129C128.494 28.6546 129.073 30.3476 129.164 32.1009C129.276 32.9037 129.081 33.7191 128.617 34.3839C128.42 34.6008 128.156 34.7457 127.867 34.7959C127.578 34.8461 127.281 34.7986 127.022 34.6609C126.697 34.531 126.403 34.3333 126.16 34.0809C125.942 33.8764 125.756 33.6405 125.607 33.3809L125.453 33.0789C125.411 33.1579 125.359 33.2309 125.298 33.2969C125.145 33.4169 124.963 33.4939 124.771 33.5219C124.449 33.5819 124.117 33.5419 123.819 33.4069C123.108 33.0992 122.516 32.5685 122.133 31.8949C121.672 31.1635 121.414 30.3222 121.387 29.4579C121.292 28.7579 121.511 28.0519 121.985 27.5279C122.189 27.3313 122.449 27.2024 122.729 27.1587C123.009 27.1151 123.295 27.1588 123.549 27.2839C123.807 27.3869 124.044 27.5349 124.249 27.7219C124.425 27.8709 124.581 28.0419 124.713 28.2299L124.829 28.4359V27.8629L126.115 28.3649L126.244 31.9789C126.253 32.2379 126.333 32.4889 126.475 32.7059C126.596 32.9149 126.781 33.0789 127.003 33.1759C127.625 33.4199 127.912 32.8839 127.865 31.5669C127.8 30.2634 127.37 29.0044 126.623 27.9339C125.952 26.8447 124.955 25.9945 123.773 25.5039C123.345 25.2861 122.86 25.2021 122.383 25.2627C121.906 25.3233 121.459 25.5258 121.098 25.8439C120.714 26.2298 120.421 26.6972 120.242 27.2114C120.063 27.7257 120.001 28.2737 120.062 28.8149C120.136 30.1937 120.58 31.527 121.349 32.6739C121.961 33.8066 122.925 34.7094 124.095 35.2459C124.503 35.4159 124.94 35.5009 125.382 35.4959C125.669 35.5159 125.957 35.4629 126.218 35.3419L126.475 35.2009L127.254 36.6479L127.125 36.7379C127.003 36.8059 126.876 36.8669 126.745 36.9179C126.54 37.0069 126.324 37.0679 126.102 37.0979C125.818 37.136 125.531 37.136 125.247 37.0979C124.874 37.0533 124.509 36.9602 124.16 36.8209C123.17 36.3951 122.29 35.7487 121.587 34.9309C120.755 34.0108 120.081 32.9588 119.593 31.8179C119.105 30.7287 118.825 29.5574 118.769 28.3649C118.7 27.3625 118.905 26.36 119.361 25.4649C119.74 24.7136 120.395 24.1376 121.188 23.8569C122.019 23.5831 122.923 23.6287 123.722 23.9849C125.283 24.6445 126.601 25.7729 127.492 27.2139V27.2129ZM124.655 31.7859C124.866 31.5159 124.961 31.1739 124.919 30.8339C124.909 30.4146 124.792 30.005 124.578 29.6439C124.404 29.3288 124.13 29.0803 123.799 28.9369C123.673 28.8719 123.529 28.8469 123.388 28.8653C123.247 28.8837 123.115 28.9446 123.009 29.0399C122.898 29.1661 122.815 29.3147 122.766 29.4756C122.717 29.6366 122.703 29.8061 122.725 29.9729C122.74 30.3969 122.866 30.8089 123.092 31.1689C123.277 31.4949 123.564 31.7529 123.909 31.9019C124.156 32.0289 124.457 31.9819 124.655 31.7859V31.7859ZM203.441 96.8479C204.445 98.2885 205.024 99.9816 205.113 101.735C205.225 102.538 205.03 103.353 204.567 104.018C204.369 104.234 204.105 104.379 203.816 104.429C203.528 104.479 203.23 104.432 202.971 104.295C202.647 104.163 202.353 103.966 202.109 103.715C201.892 103.509 201.706 103.274 201.556 103.015L201.402 102.713C201.359 102.791 201.307 102.864 201.247 102.931C201.095 103.051 200.913 103.13 200.72 103.156C200.401 103.22 200.07 103.182 199.774 103.047C199.062 102.738 198.471 102.205 198.089 101.529C197.624 100.797 197.363 99.953 197.336 99.0859C197.237 98.3859 197.456 97.6779 197.935 97.1559C198.138 96.9601 198.396 96.8316 198.675 96.788C198.953 96.7443 199.238 96.7876 199.491 96.9119C199.749 97.0139 199.987 97.1619 200.192 97.3489C200.368 97.5009 200.523 97.6739 200.656 97.8639L200.778 98.0689V97.4969L202.064 97.9919L202.193 101.606C202.204 101.865 202.284 102.116 202.424 102.333C202.545 102.543 202.73 102.707 202.952 102.803C203.595 103.047 203.859 102.513 203.82 101.195C203.755 99.8894 203.325 98.6283 202.579 97.5549C201.908 96.4696 200.914 95.6219 199.736 95.1309C199.308 94.9129 198.824 94.8282 198.347 94.8878C197.87 94.9473 197.422 95.1483 197.06 95.4649C196.678 95.8553 196.388 96.3268 196.214 96.8445C196.039 97.3622 195.983 97.9127 196.05 98.4549C196.122 99.8338 196.567 101.167 197.336 102.314C197.972 103.42 198.947 104.292 200.116 104.803C200.523 104.973 200.96 105.06 201.402 105.06C201.689 105.077 201.976 105.024 202.238 104.905L202.495 104.764L203.274 106.211L203.144 106.301C203.023 106.37 202.896 106.43 202.765 106.481C202.559 106.566 202.343 106.626 202.122 106.661C201.836 106.699 201.546 106.699 201.26 106.661C200.889 106.614 200.526 106.519 200.18 106.378C199.19 105.954 198.31 105.31 197.607 104.494C196.774 103.571 196.1 102.517 195.612 101.374C195.124 100.285 194.845 99.114 194.789 97.9219C194.719 96.9213 194.924 95.9207 195.381 95.0279C195.761 94.2756 196.415 93.6976 197.208 93.4129C198.042 93.1424 198.946 93.1887 199.748 93.5429C201.291 94.2366 202.581 95.3912 203.441 96.8479V96.8479ZM200.604 101.42C200.817 101.151 200.914 100.809 200.874 100.468C200.863 100.048 200.744 99.638 200.527 99.2779C200.356 98.9627 200.084 98.7139 199.755 98.5709C199.629 98.5048 199.486 98.4787 199.345 98.4961C199.203 98.5134 199.071 98.5733 198.964 98.6679C198.851 98.793 198.767 98.9411 198.717 99.102C198.667 99.263 198.652 99.4328 198.674 99.5999C198.689 100.022 198.816 100.433 199.041 100.79C199.226 101.118 199.513 101.378 199.858 101.53C199.978 101.592 200.115 101.615 200.249 101.596C200.383 101.576 200.507 101.514 200.604 101.42" fill="#F47B56"/>
<path style="mix-blend-mode:multiply" opacity="0.25" d="M75.2532 124.269L53.4792 111.883L31.7112 124.295C31.7112 124.295 43.8242 131.857 54.6622 138.211C61.5452 133.349 67.6622 127.787 75.2532 124.269V124.269Z" fill="url(#paint4_linear_6:11)"/>
<g filter="url(#filter0_d_6:11)">
<path d="M35.9292 89.4708V116.406L56.9132 128.423L80.6072 114.41V87.4758" fill="black"/>
</g>
<path d="M35.9292 89.4708V116.406L56.9132 128.423L80.6072 114.41V87.4758" fill="#FF9271"/>
<path d="M56.9132 101.489V128.424L80.6072 114.411V87.4758L56.9132 101.489Z" fill="#DF5C34"/>
<path d="M35.9292 89.4709L60.2762 75.5929L80.6062 87.4759L56.9132 101.489L35.9292 89.4709Z" fill="#F47B56"/>
<path d="M57.4702 81.7749C59.939 81.6083 62.404 82.1513 64.5742 83.3399C65.8172 84.0709 66.4962 84.8339 66.5922 85.6299C66.6882 86.4249 66.2782 87.1169 65.3112 87.6999C64.8524 87.9834 64.3469 88.1832 63.8182 88.2899C63.3842 88.3929 62.9382 88.4389 62.4922 88.4249L62.0052 88.3869C62.0512 88.4959 62.0812 88.6099 62.0952 88.7269C62.0801 89.0037 61.9917 89.2715 61.8392 89.5029C61.5852 89.9329 61.2232 90.2889 60.7892 90.5349C59.7769 91.1364 58.6166 91.443 57.4392 91.4199C56.2209 91.453 55.017 91.1491 53.9602 90.5419C52.9612 89.9519 52.4492 89.2589 52.4102 88.4639C52.4141 88.0429 52.5362 87.6315 52.7627 87.2766C52.9893 86.9217 53.311 86.6377 53.6912 86.4569C54.0563 86.2291 54.4538 86.0582 54.8702 85.9499C55.202 85.8541 55.5435 85.7961 55.8882 85.7769H56.2412L55.6002 85.3919L57.4002 84.2699L61.5702 86.7259C61.8891 86.8977 62.2456 86.9875 62.6077 86.9875C62.9699 86.9875 63.3264 86.8977 63.6452 86.7259C64.5292 86.1749 64.2132 85.4499 62.6972 84.5519C61.0861 83.6646 59.2546 83.2572 57.4192 83.3779C55.474 83.4018 53.5711 83.9489 51.9102 84.9619C50.3992 85.9069 49.6502 87.0339 49.6622 88.3419C49.6622 89.6249 50.4622 90.7659 52.0192 91.6829C53.7192 92.6329 55.6482 93.0929 57.5922 93.0109C59.5285 93.0428 61.4356 92.5367 63.1012 91.5489C63.6774 91.2071 64.1942 90.7737 64.6312 90.2659C64.9242 89.9559 65.1432 89.5829 65.2722 89.1759L65.3622 88.7719L67.7382 88.9059C67.7422 88.9789 67.7422 89.0519 67.7382 89.1249C67.6952 89.3209 67.6372 89.5139 67.5652 89.7019C67.4622 90.0019 67.3252 90.2919 67.1552 90.5609C66.9112 90.9249 66.6282 91.2609 66.3102 91.5609C65.8902 91.9659 65.4302 92.3229 64.9332 92.6259C63.5032 93.4844 61.9192 94.0551 60.2702 94.3059C58.4732 94.6198 56.6382 94.6522 54.8312 94.4019C53.1886 94.2086 51.6011 93.6898 50.1612 92.8759C48.9992 92.2603 48.0687 91.2835 47.5102 90.0929C47.2819 89.5735 47.1641 89.0123 47.1641 88.4449C47.1641 87.8775 47.2819 87.3164 47.5102 86.7969C48.0636 85.5842 48.9849 84.5766 50.1432 83.9169C52.3501 82.5605 54.8803 81.8208 57.4702 81.7749V81.7749ZM59.8022 88.4059C59.7603 88.1868 59.6655 87.9811 59.5261 87.8069C59.3866 87.6326 59.2068 87.495 59.0022 87.4059C58.4973 87.1086 57.9222 86.9515 57.3362 86.9509C56.792 86.9303 56.2535 87.0682 55.7862 87.3479C55.4022 87.5349 55.1552 87.9209 55.1462 88.3479C55.2042 88.7929 55.4912 89.1749 55.9012 89.3549C56.4173 89.6498 57.004 89.7985 57.5982 89.7849C58.1695 89.7993 58.7333 89.6528 59.2252 89.3619C59.5982 89.1919 59.8352 88.8159 59.8282 88.4059" fill="#3E2928"/>
</g>
<defs>
<filter id="filter0_d_6:11" x="-14.0708" y="62.4758" width="144.678" height="140.947" filterUnits="userSpaceOnUse" color-interpolation-filters="sRGB">
<feFlood flood-opacity="0" result="BackgroundImageFix"/>
<feColorMatrix in="SourceAlpha" type="matrix" values="0 0 0 0 0 0 0 0 0 0 0 0 0 0 0 0 0 0 127 0" result="hardAlpha"/>
<feOffset dy="25"/>
<feGaussianBlur stdDeviation="25"/>
<feColorMatrix type="matrix" values="0 0 0 0 0.209139 0 0 0 0 0.0691446 0 0 0 0 0.478091 0 0 0 0.497159 0"/>
<feBlend mode="normal" in2="BackgroundImageFix" result="effect1_dropShadow_6:11"/>
<feBlend mode="normal" in="SourceGraphic" in2="effect1_dropShadow_6:11" result="shape"/>
</filter>
<linearGradient id="paint0_linear_6:11" x1="149.632" y1="109.866" x2="142.637" y2="119.343" gradientUnits="userSpaceOnUse">
<stop stop-color="#78B46A"/>
<stop offset="0.03" stop-color="#7F3500"/>
<stop offset="1" stop-color="white"/>
</linearGradient>
<linearGradient id="paint1_linear_6:11" x1="123.742" y1="151.213" x2="109.061" y2="167.307" gradientUnits="userSpaceOnUse">
<stop stop-color="#78B46A"/>
<stop offset="0.03" stop-color="#7F3500"/>
<stop offset="1" stop-color="white"/>
</linearGradient>
<linearGradient id="paint2_linear_6:11" x1="91.8366" y1="83.6808" x2="80.8338" y2="95.7446" gradientUnits="userSpaceOnUse">
<stop stop-color="#78B46A"/>
<stop offset="0.03" stop-color="#7F3500"/>
<stop offset="1" stop-color="white"/>
</linearGradient>
<linearGradient id="paint3_linear_6:11" x1="194.577" y1="83.8168" x2="187.978" y2="79.0059" gradientUnits="userSpaceOnUse">
<stop stop-color="white" stop-opacity="0"/>
<stop offset="0.99" stop-color="#DC841E"/>
</linearGradient>
<linearGradient id="paint4_linear_6:11" x1="67.4953" y1="119.15" x2="52.601" y2="135.479" gradientUnits="userSpaceOnUse">
<stop stop-color="#78B46A"/>
<stop offset="0.03" stop-color="#7F3500"/>
<stop offset="1" stop-color="white"/>
</linearGradient>
<clipPath id="clip0_6:11">
<rect width="266" height="196" fill="white"/>
</clipPath>
</defs>
</svg>
